subject11_noload_free_trial03_ground_reaction
version=1
nRows=12
nColumns=19
inDegrees=no
endheader
time	ground_force_r_vx	ground_force_r_vy	ground_force_r_vz	ground_force_r_px	ground_force_r_py	ground_force_r_pz	ground_torque_r_x	ground_torque_r_y	ground_torque_r_z	ground_force_l_vx	ground_force_l_vy	ground_force_l_vz	ground_force_l_px	ground_force_l_py	ground_force_l_pz	ground_torque_l_x	ground_torque_l_y	ground_torque_l_z
      0.00000000	      0.00000000	      0.00000000	      0.00000000	    346.09783800	      0.00000000	     96.39152300	      0.00000000	      0.00000000	      0.00000000	      0.00000000	      0.00000000	      0.00000000	    155.46276000	      0.00000000	   -502.66331100	      0.00000000	      0.00000000	      0.00000000
      0.01000000	      0.00000000	      0.00000000	      0.00000000	    308.23270500	      0.00000000	     85.78330900	      0.00000000	      0.00000000	      0.00000000	      0.00000000	      0.00000000	      0.00000000	    150.07871100	      0.00000000	   -484.75895900	      0.00000000	      0.00000000	      0.00000000
      0.02000000	      0.00000000	      0.00000000	      0.00000000	    273.24406800	      0.00000000	     75.98417000	      0.00000000	      0.00000000	      0.00000000	      0.00000000	      0.00000000	      0.00000000	    144.82107100	      0.00000000	   -467.28522200	      0.00000000	      0.00000000	      0.00000000
      0.03000000	      0.00000000	      0.00000000	      0.00000000	    241.01796900	      0.00000000	     66.96192200	      0.00000000	      0.00000000	      0.00000000	      0.00000000	      0.00000000	      0.00000000	    139.68833800	      0.00000000	   -450.23685700	      0.00000000	      0.00000000	      0.00000000
      0.04000000	      0.00000000	      0.00000000	      0.00000000	    211.44044900	      0.00000000	     58.68437800	      0.00000000	      0.00000000	      0.00000000	      0.00000000	      0.00000000	      0.00000000	    134.67901000	      0.00000000	   -433.60862400	      0.00000000	      0.00000000	      0.00000000
      0.05000000	      0.00000000	      0.00000000	      0.00000000	    184.39754700	      0.00000000	     51.11935600	      0.00000000	      0.00000000	      0.00000000	      0.00000000	      0.00000000	      0.00000000	    129.79158400	      0.00000000	   -417.39527800	      0.00000000	      0.00000000	      0.00000000
      0.06000000	      0.00000000	      0.00000000	      0.00000000	    159.77530500	      0.00000000	     44.23466900	      0.00000000	      0.00000000	      0.00000000	      0.00000000	      0.00000000	      0.00000000	    125.02456000	      0.00000000	   -401.59157700	      0.00000000	      0.00000000	      0.00000000
      0.07000000	      0.00000000	      0.00000000	      0.00000000	    137.45976300	      0.00000000	     37.99813400	      0.00000000	      0.00000000	      0.00000000	      0.00000000	      0.00000000	      0.00000000	    120.37643600	      0.00000000	   -386.19228000	      0.00000000	      0.00000000	      0.00000000
      0.08000000	      0.00000000	      0.00000000	      0.00000000	    117.33696200	      0.00000000	     32.37756500	      0.00000000	      0.00000000	      0.00000000	      0.00000000	      0.00000000	      0.00000000	    115.84570800	      0.00000000	   -371.19214400	      0.00000000	      0.00000000	      0.00000000
      0.09000000	      0.00000000	      0.00000000	      0.00000000	     99.29294200	      0.00000000	     27.34077800	      0.00000000	      0.00000000	      0.00000000	      0.00000000	      0.00000000	      0.00000000	    111.43087600	      0.00000000	   -356.58592600	      0.00000000	      0.00000000	      0.00000000
      0.10000000	      0.00000000	      0.00000000	      0.00000000	     83.21374400	      0.00000000	     22.85558800	      0.00000000	      0.00000000	      0.00000000	      0.00000000	      0.00000000	      0.00000000	    107.13043800	      0.00000000	   -342.36838400	      0.00000000	      0.00000000	      0.00000000
      0.11000000	      0.00000000	      0.00000000	      0.00000000	     68.98540900	      0.00000000	     18.88981100	      0.00000000	      0.00000000	      0.00000000	      0.00000000	      0.00000000	      0.00000000	    102.94289200	      0.00000000	   -328.53427600	      0.00000000	      0.00000000	      0.00000000
